<mxfile host="app.diagrams.net" agent="Mozilla/5.0 (Windows NT 10.0; Win64; x64) AppleWebKit/537.36 (KHTML, like Gecko) Chrome/136.0.0.0 Safari/537.36" version="27.0.6">
  <diagram id="C5RBs43oDa-KdzZeNtuy" name="Page-1">
    <mxGraphModel dx="2084" dy="1316" grid="0" gridSize="10" guides="1" tooltips="1" connect="1" arrows="1" fold="1" page="0" pageScale="1" pageWidth="827" pageHeight="1169" background="light-dark(#FFFFFF,#FFFFFF)" math="0" shadow="0">
      <root>
        <mxCell id="WIyWlLk6GJQsqaUBKTNV-0" />
        <mxCell id="WIyWlLk6GJQsqaUBKTNV-1" parent="WIyWlLk6GJQsqaUBKTNV-0" />
        <mxCell id="Q2o4VX_Gl1y6fqQ10nxV-3" value="" style="edgeStyle=orthogonalEdgeStyle;rounded=0;orthogonalLoop=1;jettySize=auto;html=1;labelBackgroundColor=none;strokeColor=#23445D;fontColor=default;sketch=1;curveFitting=1;jiggle=2;" edge="1" parent="WIyWlLk6GJQsqaUBKTNV-1" source="WIyWlLk6GJQsqaUBKTNV-3" target="Q2o4VX_Gl1y6fqQ10nxV-2">
          <mxGeometry relative="1" as="geometry" />
        </mxCell>
        <mxCell id="WIyWlLk6GJQsqaUBKTNV-3" value="START" style="rounded=1;whiteSpace=wrap;html=1;fontSize=12;glass=0;strokeWidth=1;shadow=0;fillColor=light-dark(#182E3E,#006633);labelBackgroundColor=none;strokeColor=#FFFFFF;fontColor=#FFFFFF;sketch=1;curveFitting=1;jiggle=2;" parent="WIyWlLk6GJQsqaUBKTNV-1" vertex="1">
          <mxGeometry x="1031" y="35" width="98" height="57" as="geometry" />
        </mxCell>
        <mxCell id="Q2o4VX_Gl1y6fqQ10nxV-5" value="" style="edgeStyle=orthogonalEdgeStyle;rounded=0;orthogonalLoop=1;jettySize=auto;html=1;labelBackgroundColor=none;strokeColor=#23445D;fontColor=default;sketch=1;curveFitting=1;jiggle=2;" edge="1" parent="WIyWlLk6GJQsqaUBKTNV-1" source="Q2o4VX_Gl1y6fqQ10nxV-2" target="Q2o4VX_Gl1y6fqQ10nxV-4">
          <mxGeometry relative="1" as="geometry" />
        </mxCell>
        <mxCell id="Q2o4VX_Gl1y6fqQ10nxV-2" value="USER LOGIN" style="whiteSpace=wrap;html=1;rounded=1;glass=0;strokeWidth=1;shadow=0;labelBackgroundColor=none;fillColor=#182E3E;strokeColor=#FFFFFF;fontColor=#FFFFFF;sketch=1;curveFitting=1;jiggle=2;" vertex="1" parent="WIyWlLk6GJQsqaUBKTNV-1">
          <mxGeometry x="1029" y="145" width="100" height="30" as="geometry" />
        </mxCell>
        <mxCell id="Q2o4VX_Gl1y6fqQ10nxV-7" value="" style="edgeStyle=orthogonalEdgeStyle;rounded=0;orthogonalLoop=1;jettySize=auto;html=1;labelBackgroundColor=none;strokeColor=#23445D;fontColor=default;sketch=1;curveFitting=1;jiggle=2;" edge="1" parent="WIyWlLk6GJQsqaUBKTNV-1" source="Q2o4VX_Gl1y6fqQ10nxV-4" target="Q2o4VX_Gl1y6fqQ10nxV-6">
          <mxGeometry relative="1" as="geometry" />
        </mxCell>
        <mxCell id="Q2o4VX_Gl1y6fqQ10nxV-49" value="" style="edgeStyle=orthogonalEdgeStyle;rounded=0;orthogonalLoop=1;jettySize=auto;html=1;entryX=1;entryY=0.5;entryDx=0;entryDy=0;exitX=1;exitY=0.5;exitDx=0;exitDy=0;labelBackgroundColor=none;strokeColor=#23445D;fontColor=default;sketch=1;curveFitting=1;jiggle=2;" edge="1" parent="WIyWlLk6GJQsqaUBKTNV-1" source="Q2o4VX_Gl1y6fqQ10nxV-50">
          <mxGeometry relative="1" as="geometry">
            <mxPoint x="1764" y="290.0000000000002" as="sourcePoint" />
            <mxPoint x="1085" y="1250" as="targetPoint" />
            <Array as="points">
              <mxPoint x="1764" y="290" />
              <mxPoint x="1764" y="1250" />
            </Array>
          </mxGeometry>
        </mxCell>
        <mxCell id="Q2o4VX_Gl1y6fqQ10nxV-51" value="" style="edgeStyle=orthogonalEdgeStyle;rounded=0;orthogonalLoop=1;jettySize=auto;html=1;labelBackgroundColor=none;strokeColor=#23445D;fontColor=default;sketch=1;curveFitting=1;jiggle=2;" edge="1" parent="WIyWlLk6GJQsqaUBKTNV-1" source="Q2o4VX_Gl1y6fqQ10nxV-4" target="Q2o4VX_Gl1y6fqQ10nxV-50">
          <mxGeometry relative="1" as="geometry" />
        </mxCell>
        <mxCell id="Q2o4VX_Gl1y6fqQ10nxV-4" value="AUTHENTICATE" style="rhombus;whiteSpace=wrap;html=1;rounded=1;glass=0;strokeWidth=1;shadow=0;labelBackgroundColor=none;fillColor=#182E3E;strokeColor=light-dark(#FFFFFF,#FF0000);fontColor=#FFFFFF;sketch=1;curveFitting=1;jiggle=2;" vertex="1" parent="WIyWlLk6GJQsqaUBKTNV-1">
          <mxGeometry x="1006" y="230" width="146" height="120" as="geometry" />
        </mxCell>
        <mxCell id="Q2o4VX_Gl1y6fqQ10nxV-9" value="" style="edgeStyle=orthogonalEdgeStyle;rounded=0;orthogonalLoop=1;jettySize=auto;html=1;entryX=0.5;entryY=0;entryDx=0;entryDy=0;labelBackgroundColor=none;strokeColor=#23445D;fontColor=default;sketch=1;curveFitting=1;jiggle=2;" edge="1" parent="WIyWlLk6GJQsqaUBKTNV-1" source="Q2o4VX_Gl1y6fqQ10nxV-6" target="Q2o4VX_Gl1y6fqQ10nxV-8">
          <mxGeometry relative="1" as="geometry" />
        </mxCell>
        <mxCell id="Q2o4VX_Gl1y6fqQ10nxV-11" value="" style="edgeStyle=orthogonalEdgeStyle;rounded=0;orthogonalLoop=1;jettySize=auto;html=1;labelBackgroundColor=none;strokeColor=#23445D;fontColor=default;sketch=1;curveFitting=1;jiggle=2;" edge="1" parent="WIyWlLk6GJQsqaUBKTNV-1" source="Q2o4VX_Gl1y6fqQ10nxV-6" target="Q2o4VX_Gl1y6fqQ10nxV-10">
          <mxGeometry relative="1" as="geometry" />
        </mxCell>
        <mxCell id="Q2o4VX_Gl1y6fqQ10nxV-6" value="ROLE" style="rhombus;whiteSpace=wrap;html=1;rounded=1;glass=0;strokeWidth=1;shadow=0;labelBackgroundColor=none;fillColor=#182E3E;strokeColor=#FFFFFF;fontColor=#FFFFFF;sketch=1;curveFitting=1;jiggle=2;" vertex="1" parent="WIyWlLk6GJQsqaUBKTNV-1">
          <mxGeometry x="1039" y="420" width="80" height="80" as="geometry" />
        </mxCell>
        <mxCell id="Q2o4VX_Gl1y6fqQ10nxV-13" value="" style="edgeStyle=orthogonalEdgeStyle;rounded=0;orthogonalLoop=1;jettySize=auto;html=1;labelBackgroundColor=none;strokeColor=#23445D;fontColor=default;sketch=1;curveFitting=1;jiggle=2;" edge="1" parent="WIyWlLk6GJQsqaUBKTNV-1" source="Q2o4VX_Gl1y6fqQ10nxV-8" target="Q2o4VX_Gl1y6fqQ10nxV-12">
          <mxGeometry relative="1" as="geometry" />
        </mxCell>
        <mxCell id="Q2o4VX_Gl1y6fqQ10nxV-21" value="" style="edgeStyle=orthogonalEdgeStyle;rounded=0;orthogonalLoop=1;jettySize=auto;html=1;labelBackgroundColor=none;strokeColor=#23445D;fontColor=default;sketch=1;curveFitting=1;jiggle=2;" edge="1" parent="WIyWlLk6GJQsqaUBKTNV-1" source="Q2o4VX_Gl1y6fqQ10nxV-8" target="Q2o4VX_Gl1y6fqQ10nxV-20">
          <mxGeometry relative="1" as="geometry" />
        </mxCell>
        <mxCell id="Q2o4VX_Gl1y6fqQ10nxV-23" value="" style="edgeStyle=orthogonalEdgeStyle;rounded=0;orthogonalLoop=1;jettySize=auto;html=1;labelBackgroundColor=none;strokeColor=#23445D;fontColor=default;sketch=1;curveFitting=1;jiggle=2;" edge="1" parent="WIyWlLk6GJQsqaUBKTNV-1" source="Q2o4VX_Gl1y6fqQ10nxV-8" target="Q2o4VX_Gl1y6fqQ10nxV-22">
          <mxGeometry relative="1" as="geometry" />
        </mxCell>
        <mxCell id="Q2o4VX_Gl1y6fqQ10nxV-27" value="" style="edgeStyle=orthogonalEdgeStyle;rounded=0;orthogonalLoop=1;jettySize=auto;html=1;labelBackgroundColor=none;strokeColor=#23445D;fontColor=default;sketch=1;curveFitting=1;jiggle=2;" edge="1" parent="WIyWlLk6GJQsqaUBKTNV-1" source="Q2o4VX_Gl1y6fqQ10nxV-8" target="Q2o4VX_Gl1y6fqQ10nxV-26">
          <mxGeometry relative="1" as="geometry" />
        </mxCell>
        <mxCell id="Q2o4VX_Gl1y6fqQ10nxV-35" value="" style="edgeStyle=orthogonalEdgeStyle;rounded=0;orthogonalLoop=1;jettySize=auto;html=1;labelBackgroundColor=none;strokeColor=#23445D;fontColor=default;sketch=1;curveFitting=1;jiggle=2;" edge="1" parent="WIyWlLk6GJQsqaUBKTNV-1" source="Q2o4VX_Gl1y6fqQ10nxV-8" target="Q2o4VX_Gl1y6fqQ10nxV-34">
          <mxGeometry relative="1" as="geometry" />
        </mxCell>
        <mxCell id="Q2o4VX_Gl1y6fqQ10nxV-37" value="" style="edgeStyle=orthogonalEdgeStyle;rounded=0;orthogonalLoop=1;jettySize=auto;html=1;labelBackgroundColor=none;strokeColor=#23445D;fontColor=default;sketch=1;curveFitting=1;jiggle=2;" edge="1" parent="WIyWlLk6GJQsqaUBKTNV-1" source="Q2o4VX_Gl1y6fqQ10nxV-8" target="Q2o4VX_Gl1y6fqQ10nxV-36">
          <mxGeometry relative="1" as="geometry" />
        </mxCell>
        <mxCell id="Q2o4VX_Gl1y6fqQ10nxV-66" style="edgeStyle=orthogonalEdgeStyle;rounded=0;orthogonalLoop=1;jettySize=auto;html=1;exitX=1;exitY=0.25;exitDx=0;exitDy=0;entryX=0.25;entryY=0;entryDx=0;entryDy=0;labelBackgroundColor=none;strokeColor=#23445D;fontColor=default;sketch=1;curveFitting=1;jiggle=2;" edge="1" parent="WIyWlLk6GJQsqaUBKTNV-1" source="Q2o4VX_Gl1y6fqQ10nxV-8">
          <mxGeometry relative="1" as="geometry">
            <mxPoint x="1005" y="1220" as="targetPoint" />
            <Array as="points">
              <mxPoint x="753" y="510" />
              <mxPoint x="1005" y="510" />
            </Array>
          </mxGeometry>
        </mxCell>
        <mxCell id="Q2o4VX_Gl1y6fqQ10nxV-8" value="ADMIN DASHBOARD" style="whiteSpace=wrap;html=1;rounded=1;glass=0;strokeWidth=1;shadow=0;labelBackgroundColor=none;fillColor=#182E3E;strokeColor=#FFFFFF;fontColor=#FFFFFF;sketch=1;curveFitting=1;jiggle=2;" vertex="1" parent="WIyWlLk6GJQsqaUBKTNV-1">
          <mxGeometry x="588" y="500" width="165" height="50" as="geometry" />
        </mxCell>
        <mxCell id="Q2o4VX_Gl1y6fqQ10nxV-31" value="" style="edgeStyle=orthogonalEdgeStyle;rounded=0;orthogonalLoop=1;jettySize=auto;html=1;labelBackgroundColor=none;strokeColor=#23445D;fontColor=default;sketch=1;curveFitting=1;jiggle=2;" edge="1" parent="WIyWlLk6GJQsqaUBKTNV-1" source="Q2o4VX_Gl1y6fqQ10nxV-10" target="Q2o4VX_Gl1y6fqQ10nxV-30">
          <mxGeometry relative="1" as="geometry" />
        </mxCell>
        <mxCell id="Q2o4VX_Gl1y6fqQ10nxV-33" value="" style="edgeStyle=orthogonalEdgeStyle;rounded=0;orthogonalLoop=1;jettySize=auto;html=1;labelBackgroundColor=none;strokeColor=#23445D;fontColor=default;sketch=1;curveFitting=1;jiggle=2;" edge="1" parent="WIyWlLk6GJQsqaUBKTNV-1" source="Q2o4VX_Gl1y6fqQ10nxV-10" target="Q2o4VX_Gl1y6fqQ10nxV-32">
          <mxGeometry relative="1" as="geometry" />
        </mxCell>
        <mxCell id="Q2o4VX_Gl1y6fqQ10nxV-58" value="" style="edgeStyle=orthogonalEdgeStyle;rounded=0;orthogonalLoop=1;jettySize=auto;html=1;labelBackgroundColor=none;strokeColor=#23445D;fontColor=default;sketch=1;curveFitting=1;jiggle=2;" edge="1" parent="WIyWlLk6GJQsqaUBKTNV-1" source="Q2o4VX_Gl1y6fqQ10nxV-10" target="Q2o4VX_Gl1y6fqQ10nxV-57">
          <mxGeometry relative="1" as="geometry" />
        </mxCell>
        <mxCell id="Q2o4VX_Gl1y6fqQ10nxV-65" style="edgeStyle=orthogonalEdgeStyle;rounded=0;orthogonalLoop=1;jettySize=auto;html=1;exitX=0;exitY=0.25;exitDx=0;exitDy=0;entryX=0.75;entryY=0;entryDx=0;entryDy=0;labelBackgroundColor=none;strokeColor=#23445D;fontColor=default;sketch=1;curveFitting=1;jiggle=2;" edge="1" parent="WIyWlLk6GJQsqaUBKTNV-1" source="Q2o4VX_Gl1y6fqQ10nxV-10">
          <mxGeometry relative="1" as="geometry">
            <mxPoint x="1065" y="1220" as="targetPoint" />
            <Array as="points">
              <mxPoint x="1065" y="512" />
            </Array>
          </mxGeometry>
        </mxCell>
        <mxCell id="Q2o4VX_Gl1y6fqQ10nxV-10" value="PILOT DASH" style="whiteSpace=wrap;html=1;rounded=1;glass=0;strokeWidth=1;shadow=0;labelBackgroundColor=none;fillColor=#182E3E;strokeColor=#FFFFFF;fontColor=#FFFFFF;sketch=1;curveFitting=1;jiggle=2;" vertex="1" parent="WIyWlLk6GJQsqaUBKTNV-1">
          <mxGeometry x="1290" y="501" width="135" height="45" as="geometry" />
        </mxCell>
        <mxCell id="Q2o4VX_Gl1y6fqQ10nxV-15" value="" style="edgeStyle=orthogonalEdgeStyle;rounded=0;orthogonalLoop=1;jettySize=auto;html=1;labelBackgroundColor=none;strokeColor=#23445D;fontColor=default;sketch=1;curveFitting=1;jiggle=2;" edge="1" parent="WIyWlLk6GJQsqaUBKTNV-1" source="Q2o4VX_Gl1y6fqQ10nxV-12" target="Q2o4VX_Gl1y6fqQ10nxV-14">
          <mxGeometry relative="1" as="geometry" />
        </mxCell>
        <mxCell id="Q2o4VX_Gl1y6fqQ10nxV-17" value="" style="edgeStyle=orthogonalEdgeStyle;rounded=0;orthogonalLoop=1;jettySize=auto;html=1;labelBackgroundColor=none;strokeColor=#23445D;fontColor=default;sketch=1;curveFitting=1;jiggle=2;" edge="1" parent="WIyWlLk6GJQsqaUBKTNV-1" source="Q2o4VX_Gl1y6fqQ10nxV-12" target="Q2o4VX_Gl1y6fqQ10nxV-16">
          <mxGeometry relative="1" as="geometry" />
        </mxCell>
        <mxCell id="Q2o4VX_Gl1y6fqQ10nxV-19" value="" style="edgeStyle=orthogonalEdgeStyle;rounded=0;orthogonalLoop=1;jettySize=auto;html=1;labelBackgroundColor=none;strokeColor=#23445D;fontColor=default;sketch=1;curveFitting=1;jiggle=2;" edge="1" parent="WIyWlLk6GJQsqaUBKTNV-1" source="Q2o4VX_Gl1y6fqQ10nxV-12" target="Q2o4VX_Gl1y6fqQ10nxV-18">
          <mxGeometry relative="1" as="geometry" />
        </mxCell>
        <mxCell id="Q2o4VX_Gl1y6fqQ10nxV-12" value="MISSION PLANNING" style="whiteSpace=wrap;html=1;rounded=1;glass=0;strokeWidth=1;shadow=0;direction=west;labelBackgroundColor=none;fillColor=#182E3E;strokeColor=#FFFFFF;fontColor=#FFFFFF;sketch=1;curveFitting=1;jiggle=2;" vertex="1" parent="WIyWlLk6GJQsqaUBKTNV-1">
          <mxGeometry x="599.5" y="684" width="140" height="30" as="geometry" />
        </mxCell>
        <mxCell id="Q2o4VX_Gl1y6fqQ10nxV-14" value="ASSIGN JETS" style="shape=parallelogram;perimeter=parallelogramPerimeter;whiteSpace=wrap;html=1;fixedSize=1;rounded=1;glass=0;strokeWidth=1;shadow=0;labelBackgroundColor=none;fillColor=#182E3E;strokeColor=#FFFFFF;fontColor=#FFFFFF;sketch=1;curveFitting=1;jiggle=2;" vertex="1" parent="WIyWlLk6GJQsqaUBKTNV-1">
          <mxGeometry x="489.5" y="809" width="120" height="60" as="geometry" />
        </mxCell>
        <mxCell id="Q2o4VX_Gl1y6fqQ10nxV-16" value="ASSIGN PILOTS" style="shape=parallelogram;perimeter=parallelogramPerimeter;whiteSpace=wrap;html=1;fixedSize=1;rounded=1;glass=0;strokeWidth=1;shadow=0;labelBackgroundColor=none;fillColor=#182E3E;strokeColor=#FFFFFF;fontColor=#FFFFFF;sketch=1;curveFitting=1;jiggle=2;" vertex="1" parent="WIyWlLk6GJQsqaUBKTNV-1">
          <mxGeometry x="735" y="809" width="120" height="60" as="geometry" />
        </mxCell>
        <mxCell id="Q2o4VX_Gl1y6fqQ10nxV-29" value="" style="edgeStyle=orthogonalEdgeStyle;rounded=0;orthogonalLoop=1;jettySize=auto;html=1;labelBackgroundColor=none;strokeColor=#23445D;fontColor=default;sketch=1;curveFitting=1;jiggle=2;" edge="1" parent="WIyWlLk6GJQsqaUBKTNV-1" source="Q2o4VX_Gl1y6fqQ10nxV-18" target="Q2o4VX_Gl1y6fqQ10nxV-28">
          <mxGeometry relative="1" as="geometry" />
        </mxCell>
        <mxCell id="Q2o4VX_Gl1y6fqQ10nxV-18" value="SET TARGET&amp;nbsp;&lt;div&gt;AND&amp;nbsp;&lt;span style=&quot;background-color: transparent;&quot;&gt;TIME&lt;/span&gt;&lt;/div&gt;" style="shape=parallelogram;perimeter=parallelogramPerimeter;whiteSpace=wrap;html=1;fixedSize=1;rounded=1;glass=0;strokeWidth=1;shadow=0;labelBackgroundColor=none;fillColor=#182E3E;strokeColor=#FFFFFF;fontColor=#FFFFFF;sketch=1;curveFitting=1;jiggle=2;" vertex="1" parent="WIyWlLk6GJQsqaUBKTNV-1">
          <mxGeometry x="601" y="809" width="136" height="65" as="geometry" />
        </mxCell>
        <mxCell id="Q2o4VX_Gl1y6fqQ10nxV-61" style="edgeStyle=orthogonalEdgeStyle;rounded=0;orthogonalLoop=1;jettySize=auto;html=1;exitX=0.5;exitY=1;exitDx=0;exitDy=0;entryX=1;entryY=0.5;entryDx=0;entryDy=0;labelBackgroundColor=none;strokeColor=#23445D;fontColor=default;sketch=1;curveFitting=1;jiggle=2;" edge="1" parent="WIyWlLk6GJQsqaUBKTNV-1" source="Q2o4VX_Gl1y6fqQ10nxV-20" target="Q2o4VX_Gl1y6fqQ10nxV-54">
          <mxGeometry relative="1" as="geometry">
            <Array as="points">
              <mxPoint x="870" y="1160" />
            </Array>
          </mxGeometry>
        </mxCell>
        <mxCell id="Q2o4VX_Gl1y6fqQ10nxV-20" value="VIEW/ADD/UPDATE&lt;div&gt;JETS,PILOTS,MISSIONS&lt;/div&gt;" style="whiteSpace=wrap;html=1;rounded=1;glass=0;strokeWidth=1;shadow=0;labelBackgroundColor=none;fillColor=#182E3E;strokeColor=#FFFFFF;fontColor=#FFFFFF;sketch=1;curveFitting=1;jiggle=2;" vertex="1" parent="WIyWlLk6GJQsqaUBKTNV-1">
          <mxGeometry x="785" y="652" width="170" height="62" as="geometry" />
        </mxCell>
        <mxCell id="Q2o4VX_Gl1y6fqQ10nxV-25" value="" style="edgeStyle=orthogonalEdgeStyle;rounded=0;orthogonalLoop=1;jettySize=auto;html=1;labelBackgroundColor=none;strokeColor=#23445D;fontColor=default;sketch=1;curveFitting=1;jiggle=2;" edge="1" parent="WIyWlLk6GJQsqaUBKTNV-1" source="Q2o4VX_Gl1y6fqQ10nxV-22" target="Q2o4VX_Gl1y6fqQ10nxV-24">
          <mxGeometry relative="1" as="geometry" />
        </mxCell>
        <mxCell id="Q2o4VX_Gl1y6fqQ10nxV-22" value="LOG MAINTENANCE&lt;div&gt;&amp;nbsp;RECORDS&lt;/div&gt;" style="whiteSpace=wrap;html=1;rounded=1;glass=0;strokeWidth=1;shadow=0;labelBackgroundColor=none;fillColor=#182E3E;strokeColor=#FFFFFF;fontColor=#FFFFFF;sketch=1;curveFitting=1;jiggle=2;" vertex="1" parent="WIyWlLk6GJQsqaUBKTNV-1">
          <mxGeometry x="216" y="730" width="140" height="40" as="geometry" />
        </mxCell>
        <mxCell id="Q2o4VX_Gl1y6fqQ10nxV-55" value="" style="edgeStyle=orthogonalEdgeStyle;rounded=0;orthogonalLoop=1;jettySize=auto;html=1;entryX=0;entryY=0.5;entryDx=0;entryDy=0;labelBackgroundColor=none;strokeColor=#23445D;fontColor=default;sketch=1;curveFitting=1;jiggle=2;" edge="1" parent="WIyWlLk6GJQsqaUBKTNV-1" target="Q2o4VX_Gl1y6fqQ10nxV-54">
          <mxGeometry relative="1" as="geometry">
            <mxPoint x="288.0000000000002" y="870.0000000000002" as="sourcePoint" />
            <mxPoint x="571.5" y="1160" as="targetPoint" />
            <Array as="points">
              <mxPoint x="288" y="1160" />
            </Array>
          </mxGeometry>
        </mxCell>
        <mxCell id="Q2o4VX_Gl1y6fqQ10nxV-24" value="ADD/UPDATE RECORD" style="whiteSpace=wrap;html=1;rounded=1;glass=0;strokeWidth=1;shadow=0;labelBackgroundColor=none;fillColor=#182E3E;strokeColor=#FFFFFF;fontColor=#FFFFFF;sketch=1;curveFitting=1;jiggle=2;" vertex="1" parent="WIyWlLk6GJQsqaUBKTNV-1">
          <mxGeometry x="226" y="810" width="120" height="60" as="geometry" />
        </mxCell>
        <mxCell id="Q2o4VX_Gl1y6fqQ10nxV-62" style="edgeStyle=orthogonalEdgeStyle;rounded=0;orthogonalLoop=1;jettySize=auto;html=1;exitX=0.25;exitY=1;exitDx=0;exitDy=0;entryX=0;entryY=0;entryDx=0;entryDy=0;labelBackgroundColor=none;strokeColor=#23445D;fontColor=default;sketch=1;curveFitting=1;jiggle=2;" edge="1" parent="WIyWlLk6GJQsqaUBKTNV-1" source="Q2o4VX_Gl1y6fqQ10nxV-26" target="Q2o4VX_Gl1y6fqQ10nxV-54">
          <mxGeometry relative="1" as="geometry">
            <mxPoint x="595" y="1060" as="targetPoint" />
            <Array as="points">
              <mxPoint x="475" y="1139" />
            </Array>
          </mxGeometry>
        </mxCell>
        <mxCell id="Q2o4VX_Gl1y6fqQ10nxV-26" value="TRACK MISSION" style="whiteSpace=wrap;html=1;rounded=1;glass=0;strokeWidth=1;shadow=0;labelBackgroundColor=none;fillColor=#182E3E;strokeColor=#FFFFFF;fontColor=#FFFFFF;sketch=1;curveFitting=1;jiggle=2;" vertex="1" parent="WIyWlLk6GJQsqaUBKTNV-1">
          <mxGeometry x="445" y="670" width="120" height="60" as="geometry" />
        </mxCell>
        <mxCell id="Q2o4VX_Gl1y6fqQ10nxV-60" style="edgeStyle=orthogonalEdgeStyle;rounded=0;orthogonalLoop=1;jettySize=auto;html=1;exitX=0.5;exitY=1;exitDx=0;exitDy=0;entryX=0.5;entryY=0;entryDx=0;entryDy=0;labelBackgroundColor=none;strokeColor=#23445D;fontColor=default;sketch=1;curveFitting=1;jiggle=2;" edge="1" parent="WIyWlLk6GJQsqaUBKTNV-1" source="Q2o4VX_Gl1y6fqQ10nxV-28" target="Q2o4VX_Gl1y6fqQ10nxV-54">
          <mxGeometry relative="1" as="geometry" />
        </mxCell>
        <mxCell id="Q2o4VX_Gl1y6fqQ10nxV-28" value="LAUNCH MISSION" style="whiteSpace=wrap;html=1;rounded=1;glass=0;strokeWidth=1;shadow=0;labelBackgroundColor=none;fillColor=#182E3E;strokeColor=#FFFFFF;fontColor=#FFFFFF;sketch=1;curveFitting=1;jiggle=2;" vertex="1" parent="WIyWlLk6GJQsqaUBKTNV-1">
          <mxGeometry x="609" y="956.5" width="120" height="60" as="geometry" />
        </mxCell>
        <mxCell id="Q2o4VX_Gl1y6fqQ10nxV-45" value="" style="edgeStyle=orthogonalEdgeStyle;rounded=0;orthogonalLoop=1;jettySize=auto;html=1;labelBackgroundColor=none;strokeColor=#23445D;fontColor=default;sketch=1;curveFitting=1;jiggle=2;" edge="1" parent="WIyWlLk6GJQsqaUBKTNV-1" source="Q2o4VX_Gl1y6fqQ10nxV-30" target="Q2o4VX_Gl1y6fqQ10nxV-44">
          <mxGeometry relative="1" as="geometry" />
        </mxCell>
        <mxCell id="Q2o4VX_Gl1y6fqQ10nxV-30" value="JET SIMULATION" style="whiteSpace=wrap;html=1;rounded=1;glass=0;strokeWidth=1;shadow=0;labelBackgroundColor=none;fillColor=#182E3E;strokeColor=#FFFFFF;fontColor=#FFFFFF;sketch=1;curveFitting=1;jiggle=2;" vertex="1" parent="WIyWlLk6GJQsqaUBKTNV-1">
          <mxGeometry x="1297" y="649" width="120" height="60" as="geometry" />
        </mxCell>
        <mxCell id="Q2o4VX_Gl1y6fqQ10nxV-53" style="edgeStyle=orthogonalEdgeStyle;rounded=0;orthogonalLoop=1;jettySize=auto;html=1;exitX=0.5;exitY=1;exitDx=0;exitDy=0;entryX=0;entryY=0.5;entryDx=0;entryDy=0;labelBackgroundColor=none;strokeColor=#23445D;fontColor=default;sketch=1;curveFitting=1;jiggle=2;" edge="1" parent="WIyWlLk6GJQsqaUBKTNV-1" source="Q2o4VX_Gl1y6fqQ10nxV-32" target="Q2o4VX_Gl1y6fqQ10nxV-46">
          <mxGeometry relative="1" as="geometry">
            <Array as="points">
              <mxPoint x="1142" y="959" />
            </Array>
          </mxGeometry>
        </mxCell>
        <mxCell id="Q2o4VX_Gl1y6fqQ10nxV-32" value="VIEW JETS AND MISSION" style="whiteSpace=wrap;html=1;rounded=1;glass=0;strokeWidth=1;shadow=0;labelBackgroundColor=none;fillColor=#182E3E;strokeColor=#FFFFFF;fontColor=#FFFFFF;sketch=1;curveFitting=1;jiggle=2;" vertex="1" parent="WIyWlLk6GJQsqaUBKTNV-1">
          <mxGeometry x="1082.5" y="633.5" width="120" height="60" as="geometry" />
        </mxCell>
        <mxCell id="Q2o4VX_Gl1y6fqQ10nxV-64" style="rounded=0;orthogonalLoop=1;jettySize=auto;html=1;exitX=0.5;exitY=1;exitDx=0;exitDy=0;entryX=0;entryY=0.75;entryDx=0;entryDy=0;edgeStyle=orthogonalEdgeStyle;labelBackgroundColor=none;strokeColor=#23445D;fontColor=default;sketch=1;curveFitting=1;jiggle=2;" edge="1" parent="WIyWlLk6GJQsqaUBKTNV-1">
          <mxGeometry relative="1" as="geometry">
            <mxPoint x="164" y="956.5" as="sourcePoint" />
            <mxPoint x="611.9545454545455" y="1173.6363636363635" as="targetPoint" />
            <Array as="points">
              <mxPoint x="164" y="1174" />
            </Array>
          </mxGeometry>
        </mxCell>
        <mxCell id="Q2o4VX_Gl1y6fqQ10nxV-34" value="DISPLAY FLEET" style="whiteSpace=wrap;html=1;rounded=1;glass=0;strokeWidth=1;shadow=0;labelBackgroundColor=none;fillColor=#182E3E;strokeColor=#FFFFFF;fontColor=#FFFFFF;sketch=1;curveFitting=1;jiggle=2;" vertex="1" parent="WIyWlLk6GJQsqaUBKTNV-1">
          <mxGeometry x="106" y="896.5" width="120" height="60" as="geometry" />
        </mxCell>
        <mxCell id="Q2o4VX_Gl1y6fqQ10nxV-63" style="edgeStyle=orthogonalEdgeStyle;rounded=0;orthogonalLoop=1;jettySize=auto;html=1;exitX=0.5;exitY=1;exitDx=0;exitDy=0;entryX=0;entryY=0.25;entryDx=0;entryDy=0;labelBackgroundColor=none;strokeColor=#23445D;fontColor=default;sketch=1;curveFitting=1;jiggle=2;" edge="1" parent="WIyWlLk6GJQsqaUBKTNV-1" source="Q2o4VX_Gl1y6fqQ10nxV-36" target="Q2o4VX_Gl1y6fqQ10nxV-54">
          <mxGeometry relative="1" as="geometry">
            <Array as="points">
              <mxPoint x="415" y="1148" />
            </Array>
          </mxGeometry>
        </mxCell>
        <mxCell id="Q2o4VX_Gl1y6fqQ10nxV-36" value="SET AVAILABILITY" style="whiteSpace=wrap;html=1;rounded=1;glass=0;strokeWidth=1;shadow=0;labelBackgroundColor=none;fillColor=#182E3E;strokeColor=#FFFFFF;fontColor=#FFFFFF;sketch=1;curveFitting=1;jiggle=2;" vertex="1" parent="WIyWlLk6GJQsqaUBKTNV-1">
          <mxGeometry x="355" y="573.5" width="120" height="60" as="geometry" />
        </mxCell>
        <mxCell id="Q2o4VX_Gl1y6fqQ10nxV-47" value="" style="edgeStyle=orthogonalEdgeStyle;rounded=0;orthogonalLoop=1;jettySize=auto;html=1;labelBackgroundColor=none;strokeColor=#23445D;fontColor=default;sketch=1;curveFitting=1;jiggle=2;" edge="1" parent="WIyWlLk6GJQsqaUBKTNV-1" source="Q2o4VX_Gl1y6fqQ10nxV-44" target="Q2o4VX_Gl1y6fqQ10nxV-46">
          <mxGeometry relative="1" as="geometry" />
        </mxCell>
        <mxCell id="Q2o4VX_Gl1y6fqQ10nxV-44" value="ENTER&lt;div&gt;&amp;nbsp;SIMULATION&lt;/div&gt;" style="shape=parallelogram;perimeter=parallelogramPerimeter;whiteSpace=wrap;html=1;fixedSize=1;rounded=1;glass=0;strokeWidth=1;shadow=0;labelBackgroundColor=none;fillColor=#182E3E;strokeColor=#FFFFFF;fontColor=#FFFFFF;sketch=1;curveFitting=1;jiggle=2;" vertex="1" parent="WIyWlLk6GJQsqaUBKTNV-1">
          <mxGeometry x="1297" y="789" width="120" height="60" as="geometry" />
        </mxCell>
        <mxCell id="Q2o4VX_Gl1y6fqQ10nxV-46" value="EXIT TO DASH" style="shape=trapezoid;perimeter=trapezoidPerimeter;whiteSpace=wrap;html=1;fixedSize=1;rounded=1;glass=0;strokeWidth=1;shadow=0;labelBackgroundColor=none;fillColor=#182E3E;strokeColor=light-dark(#FFFFFF,#CC0000);fontColor=#FFFFFF;sketch=1;curveFitting=1;jiggle=2;" vertex="1" parent="WIyWlLk6GJQsqaUBKTNV-1">
          <mxGeometry x="1297" y="929" width="120" height="60" as="geometry" />
        </mxCell>
        <mxCell id="Q2o4VX_Gl1y6fqQ10nxV-48" value="EXIT" style="shape=trapezoid;perimeter=trapezoidPerimeter;whiteSpace=wrap;html=1;fixedSize=1;rounded=1;glass=0;strokeWidth=1;shadow=0;fillColor=light-dark(#182E3E,#CC0000);labelBackgroundColor=none;strokeColor=#FFFFFF;fontColor=#FFFFFF;sketch=1;curveFitting=1;jiggle=2;" vertex="1" parent="WIyWlLk6GJQsqaUBKTNV-1">
          <mxGeometry x="988" y="1220" width="120" height="60" as="geometry" />
        </mxCell>
        <mxCell id="Q2o4VX_Gl1y6fqQ10nxV-52" value="" style="edgeStyle=orthogonalEdgeStyle;rounded=0;orthogonalLoop=1;jettySize=auto;html=1;labelBackgroundColor=none;strokeColor=#23445D;fontColor=default;sketch=1;curveFitting=1;jiggle=2;" edge="1" parent="WIyWlLk6GJQsqaUBKTNV-1" source="Q2o4VX_Gl1y6fqQ10nxV-4" target="Q2o4VX_Gl1y6fqQ10nxV-50">
          <mxGeometry relative="1" as="geometry">
            <mxPoint x="1152" y="290" as="sourcePoint" />
            <mxPoint x="1655" y="980" as="targetPoint" />
          </mxGeometry>
        </mxCell>
        <mxCell id="Q2o4VX_Gl1y6fqQ10nxV-50" value="RETRY&lt;div&gt;FAIL&lt;/div&gt;" style="rhombus;whiteSpace=wrap;html=1;rounded=1;glass=0;strokeWidth=1;shadow=0;labelBackgroundColor=none;fillColor=#182E3E;strokeColor=light-dark(#FFFFFF,#CC0000);fontColor=#FFFFFF;sketch=1;curveFitting=1;jiggle=2;" vertex="1" parent="WIyWlLk6GJQsqaUBKTNV-1">
          <mxGeometry x="1492" y="250" width="80" height="80" as="geometry" />
        </mxCell>
        <mxCell id="Q2o4VX_Gl1y6fqQ10nxV-54" value="EXIT TO DASH" style="shape=trapezoid;perimeter=trapezoidPerimeter;whiteSpace=wrap;html=1;fixedSize=1;rounded=1;glass=0;strokeWidth=1;shadow=0;labelBackgroundColor=none;fillColor=#182E3E;strokeColor=light-dark(#FFFFFF,#990000);fontColor=#FFFFFF;sketch=1;curveFitting=1;jiggle=2;" vertex="1" parent="WIyWlLk6GJQsqaUBKTNV-1">
          <mxGeometry x="608.5" y="1130" width="120" height="60" as="geometry" />
        </mxCell>
        <mxCell id="Q2o4VX_Gl1y6fqQ10nxV-59" style="edgeStyle=orthogonalEdgeStyle;rounded=0;orthogonalLoop=1;jettySize=auto;html=1;exitX=0.5;exitY=1;exitDx=0;exitDy=0;entryX=1;entryY=0.5;entryDx=0;entryDy=0;labelBackgroundColor=none;strokeColor=#23445D;fontColor=default;sketch=1;curveFitting=1;jiggle=2;" edge="1" parent="WIyWlLk6GJQsqaUBKTNV-1" source="Q2o4VX_Gl1y6fqQ10nxV-57" target="Q2o4VX_Gl1y6fqQ10nxV-46">
          <mxGeometry relative="1" as="geometry">
            <Array as="points">
              <mxPoint x="1565" y="959" />
            </Array>
          </mxGeometry>
        </mxCell>
        <mxCell id="Q2o4VX_Gl1y6fqQ10nxV-57" value="PERSONAL INFO" style="whiteSpace=wrap;html=1;rounded=1;glass=0;strokeWidth=1;shadow=0;labelBackgroundColor=none;fillColor=#182E3E;strokeColor=#FFFFFF;fontColor=#FFFFFF;sketch=1;curveFitting=1;jiggle=2;" vertex="1" parent="WIyWlLk6GJQsqaUBKTNV-1">
          <mxGeometry x="1505" y="649" width="120" height="60" as="geometry" />
        </mxCell>
        <mxCell id="Q2o4VX_Gl1y6fqQ10nxV-68" value="&lt;font style=&quot;font-size: 39px;&quot;&gt;FLOW CHART&lt;/font&gt;" style="text;html=1;align=center;verticalAlign=middle;whiteSpace=wrap;rounded=0;fontFamily=Architects Daughter;fontSource=https%3A%2F%2Ffonts.googleapis.com%2Fcss%3Ffamily%3DArchitects%2BDaughter;fontColor=#FFFFFF;" vertex="1" parent="WIyWlLk6GJQsqaUBKTNV-1">
          <mxGeometry x="155.5" y="131" width="519" height="141" as="geometry" />
        </mxCell>
      </root>
    </mxGraphModel>
  </diagram>
</mxfile>
